<svg xmlns="http://www.w3.org/2000/svg" width="82" height="20" fill="#ff0041"><path d="M.419.409l2.216 1.388L4.851.409l2.216 1.388L9.282.409v3.728H.419V.409zm2.488 15.172H.419V5.38h2.488v10.2zm.249-5.101l3.202-5.1h2.925l-3.202 5.1 3.202 5.1H6.358l-3.202-5.1zm6.523-2.997h2.488v8.098H9.679V7.483zm8.937 3.706c0-1.105-.611-1.715-1.557-1.715s-1.557.61-1.557 1.715v4.391h-2.488V7.483h2.488v1.076c.495-.683 1.368-1.163 2.459-1.163 1.877 0 3.128 1.279 3.128 3.459v4.726h-2.473V11.19zm7.419-1.657c-.931 0-1.775.698-1.775 1.991s.844 2.02 1.775 2.02c.946 0 1.775-.712 1.775-2.006s-.829-2.006-1.775-2.006zm-.727-2.166c1.193 0 2.066.538 2.503 1.265V7.483h2.488v8.096c0 2.166-1.251 4.012-4.06 4.012-2.415 0-3.987-1.221-4.205-3.154h2.459c.16.61.771 1.003 1.63 1.003.946 0 1.688-.494 1.688-1.86v-1.148c-.451.712-1.309 1.279-2.503 1.279-1.994 0-3.579-1.628-3.579-4.186s1.586-4.157 3.579-4.157zm5.859-1.986h2.939l2.866 7.064L39.81 5.38h2.925v10.2h-2.488V9.465l-2.285 6.116h-2.008L33.655 9.45v6.131h-2.488V5.38zm16.542 4.152c-.931 0-1.775.698-1.775 1.991s.844 2.02 1.775 2.02c.946 0 1.775-.712 1.775-2.006s-.829-2.006-1.775-2.006zm-.728-2.166c1.208 0 2.066.552 2.503 1.265V7.483h2.488v8.098h-2.488v-1.136c-.451.712-1.309 1.265-2.517 1.265-1.979 0-3.565-1.628-3.565-4.186s1.586-4.157 3.579-4.157zm5.85-1.986h2.488v5.402l2.459-3.299h3.07l-3.376 4.07 3.394 4.028h-3.083l-2.464-3.388v3.388h-2.488V5.38zm9.565 5.373h3.114c0-.887-.699-1.395-1.528-1.395-.815 0-1.44.494-1.586 1.395zm1.615 4.956c-2.386 0-4.103-1.599-4.103-4.171s1.688-4.172 4.103-4.172c2.372 0 4.045 1.57 4.045 4.041a6.25 6.25 0 0 1-.044.727h-5.631c.087 1.061.742 1.555 1.542 1.555.698 0 1.091-.349 1.295-.785h2.648c-.393 1.584-1.833 2.805-3.856 2.805zm7.236-.128h-2.488V7.483h2.488v1.352c.567-.858 1.455-1.439 2.546-1.439v2.631h-.684c-1.178 0-1.862.407-1.862 1.802v3.752z"/><path d="M77.626 15.696c-2.168 0-3.623-1.206-3.74-2.776h2.459c.058.567.567.945 1.251.945.64 0 .975-.291.975-.654 0-1.308-4.423-.363-4.423-3.343 0-1.381 1.179-2.514 3.303-2.514 2.095 0 3.259 1.163 3.419 2.762h-2.299c-.073-.552-.495-.916-1.193-.916-.582 0-.902.233-.902.625 0 1.294 4.394.378 4.438 3.401 0 1.41-1.251 2.471-3.288 2.471z"/></svg>